<svg width="117" height="48" viewBox="0 0 117 48" fill="none" xmlns="http://www.w3.org/2000/svg">
<path d="M38.7224 17.336L41.5304 15.752M36.7064 14.96L38.0744 12.872M33.8984 13.88V11M30.9464 14.96L29.5784 12.872M28.9304 17.336L26.2664 15.896" stroke="#0066FF" stroke-width="0.72" stroke-linecap="round"/>
<path d="M45.6395 27.1348C44.5848 25.0626 42.1621 24.5677 40.9784 24.6071C40.962 24.6077 40.9446 24.6097 40.9335 24.6217C40.7675 24.803 42.2828 26.0996 42.8668 27.0061C42.8875 27.0382 42.9198 27.0611 42.9569 27.07L42.964 27.0716C44.3278 27.3965 44.9153 27.5364 45.5634 27.3241C45.6419 27.2983 45.677 27.2084 45.6395 27.1348Z" fill="#0066FF"/>
<path d="M45.6344 28.856C45.4247 28.9399 44.6935 28.838 44.1075 28.7394C43.9601 28.7146 43.7142 29.0197 43.7474 29.1655C43.9933 30.2481 44.1658 32.5566 44.3384 32.384C44.5544 32.168 45.9944 28.712 45.6344 28.856Z" fill="#0066FF"/>
<path d="M25.9063 28.64C25.1107 28.9242 23.3151 28.7644 22.4836 28.6448C22.4612 28.6416 22.4371 28.6442 22.416 28.6522C21.4271 29.0252 23.9749 30.152 25.1143 30.152C31.506 30.152 32.0962 26.3091 32.244 25.3469L32.2463 25.3316C32.4166 24.2246 29.5064 25.112 28.5023 26.8436C27.5816 28.4316 26.9143 28.28 25.9063 28.64Z" fill="#0066FF"/>
<path d="M26.7283 20.5597C27.0329 20.9339 26.5323 22.176 25.4023 23.096C24.2724 24.016 22.9411 24.2655 22.6364 23.8913C22.3317 23.5172 22.8324 22.432 23.9623 21.512C25.0922 20.592 26.4236 20.1855 26.7283 20.5597Z" fill="#0066FF"/>
<path d="M26.9136 24.6917C27.1296 25.1957 25.6896 26.6841 24.8256 27.0768C24.0498 27.4294 22.2377 27.6326 22.1639 27.0428C22.1609 27.0183 22.1679 26.9936 22.1801 26.9722C22.7575 25.9625 23.8154 25.0384 24.8066 24.6275C24.8193 24.6223 24.833 24.619 24.8466 24.6176C26.3417 24.4615 26.6986 24.1901 26.9136 24.6917Z" fill="#0066FF"/>
<path d="M33.1783 27.2C30.6388 32.279 25.6953 31.7158 23.055 30.9924C22.9657 30.968 22.8777 31.0324 22.8861 31.1245C22.9712 32.0591 24.0754 33.6803 28.0663 33.896C33.3943 34.184 36.6785 29.2753 36.9943 27.2C37.4983 23.888 35.2663 23.024 33.1783 27.2Z" fill="#0066FF"/>
<path d="M38.4965 25.2325C37.9188 35.5273 29.2393 35.634 25.6248 34.8184C25.4816 34.7861 25.3866 34.9694 25.4909 35.0728C33.5998 43.1094 42.4819 36.1038 42.6823 34.544C43.5796 27.5579 39.5703 25.4784 38.6788 25.1059C38.5913 25.0694 38.5018 25.1379 38.4965 25.2325Z" fill="#0066FF"/>
<path d="M44.9116 23.7883C44.9148 23.8482 44.8773 23.9026 44.8199 23.9201C44.2544 24.0932 43.4767 23.9868 42.1258 23.1796C42.1131 23.1721 42.1011 23.1621 42.0913 23.151C41.0642 21.9867 40.6959 21.5428 40.86 20.8097C40.8723 20.7549 40.9178 20.7137 40.9736 20.7067C41.8073 20.6016 42.6433 20.9563 43.5463 21.512C44.1713 21.9981 44.8633 22.886 44.9116 23.7883Z" fill="#0066FF"/>
<path d="M37.2824 19.784C37.4752 21.584 35.8424 23.024 33.8984 23.168C31.9544 23.312 30.7304 21.656 30.5144 19.784C30.2984 17.912 32.0295 16.4 33.8984 16.4C35.8424 16.184 37.0664 17.768 37.2824 19.784Z" fill="#0066FF"/>
<path d="M57.96 18.38V39H52.44V18.38H57.96ZM58.62 12.52C58.62 12.9867 58.5267 13.42 58.34 13.82C58.1533 14.22 57.9 14.5733 57.58 14.88C57.2733 15.1867 56.9067 15.4267 56.48 15.6C56.0667 15.7733 55.62 15.86 55.14 15.86C54.6867 15.86 54.2533 15.7733 53.84 15.6C53.44 15.4267 53.0867 15.1867 52.78 14.88C52.4733 14.5733 52.2267 14.22 52.04 13.82C51.8667 13.42 51.78 12.9867 51.78 12.52C51.78 12.0533 51.8667 11.62 52.04 11.22C52.2267 10.8067 52.4733 10.4467 52.78 10.14C53.0867 9.83333 53.44 9.59333 53.84 9.42C54.2533 9.24666 54.6867 9.16 55.14 9.16C55.62 9.16 56.0667 9.24666 56.48 9.42C56.9067 9.59333 57.2733 9.83333 57.58 10.14C57.9 10.4467 58.1533 10.8067 58.34 11.22C58.5267 11.62 58.62 12.0533 58.62 12.52ZM67.7906 20.78C68.204 20.38 68.6306 20.0133 69.0706 19.68C69.524 19.3467 69.9973 19.06 70.4906 18.82C70.9973 18.58 71.5373 18.3933 72.1106 18.26C72.6973 18.1267 73.3306 18.06 74.0106 18.06C75.1306 18.06 76.124 18.2533 76.9906 18.64C77.8573 19.0267 78.584 19.5667 79.1706 20.26C79.7706 20.9533 80.2173 21.78 80.5106 22.74C80.8173 23.7 80.9706 24.7533 80.9706 25.9V39H75.4706V25.9C75.4706 24.7533 75.204 23.8667 74.6706 23.24C74.1373 22.6 73.3506 22.28 72.3106 22.28C71.5373 22.28 70.8106 22.4467 70.1306 22.78C69.4506 23.1133 68.804 23.58 68.1906 24.18V39H62.6706V18.38H66.0706C66.764 18.38 67.224 18.7 67.4506 19.34L67.7906 20.78ZM91.7363 39H85.6963V9.98H91.7363V39ZM101.853 20.78C102.266 20.38 102.693 20.0133 103.133 19.68C103.586 19.3467 104.06 19.06 104.553 18.82C105.06 18.58 105.6 18.3933 106.173 18.26C106.76 18.1267 107.393 18.06 108.073 18.06C109.193 18.06 110.186 18.2533 111.053 18.64C111.92 19.0267 112.646 19.5667 113.233 20.26C113.833 20.9533 114.28 21.78 114.573 22.74C114.88 23.7 115.033 24.7533 115.033 25.9V39H109.533V25.9C109.533 24.7533 109.266 23.8667 108.733 23.24C108.2 22.6 107.413 22.28 106.373 22.28C105.6 22.28 104.873 22.4467 104.193 22.78C103.513 23.1133 102.866 23.58 102.253 24.18V39H96.7331V18.38H100.133C100.826 18.38 101.286 18.7 101.513 19.34L101.853 20.78Z" fill="#0066FF"/>
<path d="M14.52 28.6C14.52 30.2267 14.32 31.7 13.92 33.02C13.52 34.3267 12.9133 35.4533 12.1 36.4C11.3 37.3333 10.2933 38.0533 9.08 38.56C7.86667 39.0667 6.45333 39.32 4.84 39.32C4.10667 39.32 3.38 39.2733 2.66 39.18C1.95333 39.1 1.20667 38.9667 0.42 38.78C0.473333 38.1933 0.526667 37.6067 0.58 37.02C0.633333 36.4333 0.686667 35.8467 0.74 35.26C0.78 34.94 0.906667 34.6867 1.12 34.5C1.33333 34.3 1.64 34.2 2.04 34.2C2.26667 34.2 2.55333 34.24 2.9 34.32C3.26 34.4 3.7 34.44 4.22 34.44C4.94 34.44 5.56667 34.34 6.1 34.14C6.63333 33.94 7.08 33.6133 7.44 33.16C7.8 32.7067 8.06667 32.12 8.24 31.4C8.42667 30.6667 8.52 29.78 8.52 28.74V9.98H14.52V28.6Z" fill="#0066FF"/>
</svg>
