<svg width="37" height="27" viewBox="0 0 37 27" fill="none" xmlns="http://www.w3.org/2000/svg">
<path fill-rule="evenodd" clip-rule="evenodd" d="M5.95 1C3.21619 1 1 3.21619 1 5.95V7.75C1 8.14271 1.171 8.51595 1.46842 8.7724C1.76583 9.02885 2.16017 9.14308 2.54861 9.08531C2.72012 9.0598 2.80194 9.05487 2.83365 9.05442L2.8591 9.06187C2.88782 9.07067 2.92314 9.08237 2.98234 9.10235L3.00479 9.10994C3.11779 9.14813 3.27552 9.20144 3.47977 9.26077C4.03985 9.42347 4.55819 9.70521 4.99933 10.0867C5.44046 10.4683 5.79399 10.9406 6.03573 11.4713C6.27747 12.0021 6.40172 12.5789 6.39998 13.1621C6.39824 13.7453 6.27055 14.3213 6.02565 14.8506C5.78075 15.3799 5.42441 15.8501 4.981 16.229C4.5376 16.6079 4.01759 16.8866 3.45655 17.0459C3.23726 17.1082 3.0736 17.1638 2.95744 17.2033L2.95297 17.2048C2.89256 17.2253 2.8589 17.2367 2.83073 17.2455L2.82263 17.2479C2.78714 17.2461 2.70756 17.2393 2.55657 17.2159C2.16709 17.1556 1.77071 17.2685 1.47147 17.525C1.17222 17.7814 1 18.1559 1 18.55V20.35C1 23.0838 3.21619 25.3 5.95 25.3H31.15C33.8838 25.3 36.1 23.0838 36.1 20.35V18.55C36.1 18.1559 35.9278 17.7814 35.6285 17.525C35.3293 17.2685 34.9329 17.1556 34.5434 17.2159C34.3924 17.2393 34.3129 17.2461 34.2774 17.2479L34.2693 17.2455C34.2411 17.2367 34.2074 17.2253 34.147 17.2048L34.1425 17.2033C34.0264 17.1638 33.8627 17.1082 33.6435 17.0459C33.0824 16.8866 32.5624 16.6079 32.119 16.229C31.6756 15.8501 31.3193 15.3799 31.0743 14.8506C30.8294 14.3213 30.7018 13.7453 30.7 13.1621C30.6983 12.5788 30.8225 12.0021 31.0643 11.4713C31.306 10.9406 31.6595 10.4683 32.1007 10.0867C32.5418 9.70521 33.0601 9.42347 33.6202 9.26077C33.8245 9.20144 33.9822 9.14813 34.0952 9.10994L34.1177 9.10235C34.1769 9.08237 34.2122 9.07067 34.2409 9.06187L34.2664 9.05442C34.2981 9.05487 34.3799 9.0598 34.5514 9.08531C34.9398 9.14308 35.3342 9.02885 35.6316 8.7724C35.929 8.51595 36.1 8.14271 36.1 7.75V5.95C36.1 3.21619 33.8838 1 31.15 1H5.95ZM20.8 3.7H5.95C4.70736 3.7 3.7 4.70736 3.7 5.95V6.4959C3.75066 6.512 3.79624 6.5274 3.83495 6.54048L3.86442 6.55043C3.976 6.58811 4.08585 6.62522 4.23295 6.66795C5.16642 6.93911 6.03032 7.40869 6.76554 8.04457C7.50077 8.68044 8.08998 9.46761 8.49289 10.3522C8.89579 11.2369 9.10287 12.1981 9.09997 13.1701C9.09707 14.1422 8.88426 15.1022 8.47608 15.9844C8.06791 16.8666 7.47401 17.6502 6.735 18.2817C5.996 18.9132 5.12932 19.3776 4.19424 19.6432C4.04233 19.6863 3.93199 19.7237 3.82172 19.7612L3.80259 19.7677C3.77305 19.7778 3.73834 19.7896 3.7 19.8022V20.35C3.7 21.5926 4.70736 22.6 5.95 22.6H20.8V3.7ZM23.5 22.6V3.7H31.15C32.3926 3.7 33.4 4.70736 33.4 5.95V6.4959C33.3494 6.51199 33.3038 6.52738 33.2651 6.54044L33.2355 6.55044C33.124 6.58812 33.0141 6.62522 32.867 6.66795C31.9336 6.93911 31.0697 7.40869 30.3345 8.04457C29.5992 8.68044 29.01 9.46761 28.6071 10.3522C28.2042 11.2369 27.9971 12.1981 28 13.1701C28.0029 14.1422 28.2157 15.1022 28.6239 15.9844C29.0321 16.8666 29.626 17.6502 30.365 18.2817C31.104 18.9132 31.9707 19.3776 32.9058 19.6432C33.0577 19.6863 33.168 19.7237 33.2783 19.7612L33.2974 19.7677C33.327 19.7778 33.3616 19.7896 33.4 19.8022V20.35C33.4 21.5926 32.3926 22.6 31.15 22.6H23.5ZM2.85021 9.05501C2.8497 9.05521 2.84525 9.05521 2.83837 9.05439C2.84728 9.05439 2.85072 9.0548 2.85021 9.05501ZM2.83816 17.2485C2.84406 17.2486 2.84653 17.2485 2.84629 17.2484C2.84618 17.2483 2.84549 17.2483 2.8443 17.2483C2.84291 17.2483 2.84083 17.2483 2.83816 17.2485ZM34.2498 9.055C34.2493 9.0548 34.2528 9.05439 34.2616 9.05439C34.2547 9.05522 34.2502 9.05521 34.2498 9.055Z" fill="white"/>
<path d="M34.2537 17.2484C34.2539 17.2483 34.2568 17.2482 34.2618 17.2485M1 5.95C1 3.21619 3.21619 1 5.95 1H31.15C33.8838 1 36.1 3.21619 36.1 5.95V7.75C36.1 8.14271 35.929 8.51595 35.6316 8.7724C35.3342 9.02885 34.9398 9.14308 34.5514 9.08531C34.3799 9.0598 34.2981 9.05487 34.2664 9.05442L34.2409 9.06187C34.2122 9.07067 34.1769 9.08237 34.1177 9.10235L34.0952 9.10994C33.9822 9.14813 33.8245 9.20144 33.6202 9.26077C33.0601 9.42347 32.5418 9.70521 32.1007 10.0867C31.6595 10.4683 31.306 10.9406 31.0643 11.4713C30.8225 12.0021 30.6983 12.5788 30.7 13.1621C30.7018 13.7453 30.8294 14.3213 31.0743 14.8506C31.3193 15.3799 31.6756 15.8501 32.119 16.229C32.5624 16.6079 33.0824 16.8866 33.6435 17.0459C33.8627 17.1082 34.0264 17.1638 34.1425 17.2033L34.147 17.2048C34.2074 17.2253 34.2411 17.2367 34.2693 17.2455L34.2774 17.2479C34.3129 17.2461 34.3924 17.2393 34.5434 17.2159C34.9329 17.1556 35.3293 17.2685 35.6285 17.525C35.9278 17.7814 36.1 18.1559 36.1 18.55V20.35C36.1 23.0838 33.8838 25.3 31.15 25.3H5.95C3.21619 25.3 1 23.0838 1 20.35V18.55C1 18.1559 1.17222 17.7814 1.47147 17.525C1.77071 17.2685 2.16709 17.1556 2.55657 17.2159C2.70756 17.2393 2.78714 17.2461 2.82263 17.2479L2.83073 17.2455C2.8589 17.2367 2.89256 17.2253 2.95297 17.2048L2.95744 17.2033C3.0736 17.1638 3.23726 17.1082 3.45655 17.0459C4.01759 16.8866 4.5376 16.6079 4.981 16.229C5.42441 15.8501 5.78075 15.3799 6.02565 14.8506C6.27055 14.3213 6.39824 13.7453 6.39998 13.1621C6.40172 12.5789 6.27747 12.0021 6.03573 11.4713C5.79399 10.9406 5.44046 10.4683 4.99933 10.0867C4.55819 9.70521 4.03985 9.42347 3.47977 9.26077C3.27552 9.20144 3.11779 9.14813 3.00479 9.10994L2.98234 9.10235C2.92314 9.08237 2.88782 9.07067 2.8591 9.06187L2.83365 9.05442C2.80194 9.05487 2.72012 9.0598 2.54861 9.08531C2.16017 9.14308 1.76583 9.02885 1.46842 8.7724C1.171 8.51595 1 8.14271 1 7.75V5.95ZM20.8 3.7H5.95C4.70736 3.7 3.7 4.70736 3.7 5.95V6.4959C3.75066 6.512 3.79624 6.5274 3.83495 6.54048L3.86442 6.55043C3.976 6.58811 4.08585 6.62522 4.23295 6.66795C5.16642 6.93911 6.03032 7.40869 6.76554 8.04457C7.50077 8.68044 8.08999 9.46761 8.49289 10.3522C8.89579 11.2369 9.10287 12.1981 9.09997 13.1701C9.09707 14.1422 8.88426 15.1022 8.47608 15.9844C8.06791 16.8666 7.47401 17.6502 6.735 18.2817C5.99599 18.9132 5.12932 19.3776 4.19424 19.6432C4.04233 19.6863 3.93199 19.7237 3.82172 19.7612L3.80259 19.7677C3.77305 19.7778 3.73834 19.7896 3.7 19.8022V20.35C3.7 21.5926 4.70736 22.6 5.95 22.6H20.8V3.7ZM23.5 3.7V22.6H31.15C32.3926 22.6 33.4 21.5926 33.4 20.35V19.8022C33.3616 19.7896 33.327 19.7778 33.2974 19.7677L33.2783 19.7612C33.168 19.7237 33.0577 19.6863 32.9058 19.6432C31.9707 19.3776 31.104 18.9132 30.365 18.2817C29.626 17.6502 29.0321 16.8666 28.6239 15.9844C28.2157 15.1022 28.0029 14.1422 28 13.1701C27.9971 12.1981 28.2042 11.2369 28.6071 10.3522C29.01 9.46761 29.5992 8.68044 30.3345 8.04457C31.0697 7.40869 31.9336 6.93911 32.867 6.66795C33.0141 6.62522 33.124 6.58812 33.2355 6.55044L33.2651 6.54044C33.3038 6.52738 33.3494 6.51199 33.4 6.4959V5.95C33.4 4.70736 32.3926 3.7 31.15 3.7H23.5ZM2.85021 9.05501C2.8497 9.05521 2.84525 9.05521 2.83837 9.05439C2.84728 9.05439 2.85072 9.0548 2.85021 9.05501ZM2.84629 17.2484C2.84653 17.2485 2.84406 17.2486 2.83816 17.2485C2.84083 17.2483 2.84291 17.2483 2.8443 17.2483C2.84549 17.2483 2.84618 17.2483 2.84629 17.2484ZM34.2498 9.055C34.2493 9.0548 34.2528 9.05439 34.2616 9.05439C34.2547 9.05522 34.2502 9.05521 34.2498 9.055Z" stroke="white" stroke-width="1.5" stroke-linecap="round" stroke-linejoin="round"/>
</svg>

